<svg id="visual" viewBox="0 0 960 540" width="960" height="540" xmlns="http://www.w3.org/2000/svg" xmlns:xlink="http://www.w3.org/1999/xlink" version="1.1"><rect x="0" y="0" width="960" height="540" fill="#1A212E"></rect><defs><linearGradient id="grad1_0" x1="43.8%" y1="0%" x2="100%" y2="100%"><stop offset="14.444444444444446%" stop-color="#a7c8e2" stop-opacity="1"></stop><stop offset="85.55555555555554%" stop-color="#a7c8e2" stop-opacity="1"></stop></linearGradient></defs><defs><linearGradient id="grad1_1" x1="43.8%" y1="0%" x2="100%" y2="100%"><stop offset="14.444444444444446%" stop-color="#a7c8e2" stop-opacity="1"></stop><stop offset="85.55555555555554%" stop-color="#758ba2" stop-opacity="1"></stop></linearGradient></defs><defs><linearGradient id="grad1_2" x1="43.8%" y1="0%" x2="100%" y2="100%"><stop offset="14.444444444444446%" stop-color="#465365" stop-opacity="1"></stop><stop offset="85.55555555555554%" stop-color="#758ba2" stop-opacity="1"></stop></linearGradient></defs><defs><linearGradient id="grad1_3" x1="43.8%" y1="0%" x2="100%" y2="100%"><stop offset="14.444444444444446%" stop-color="#465365" stop-opacity="1"></stop><stop offset="85.55555555555554%" stop-color="#1a212e" stop-opacity="1"></stop></linearGradient></defs><defs><linearGradient id="grad2_0" x1="0%" y1="0%" x2="56.3%" y2="100%"><stop offset="14.444444444444446%" stop-color="#a7c8e2" stop-opacity="1"></stop><stop offset="85.55555555555554%" stop-color="#a7c8e2" stop-opacity="1"></stop></linearGradient></defs><defs><linearGradient id="grad2_1" x1="0%" y1="0%" x2="56.3%" y2="100%"><stop offset="14.444444444444446%" stop-color="#758ba2" stop-opacity="1"></stop><stop offset="85.55555555555554%" stop-color="#a7c8e2" stop-opacity="1"></stop></linearGradient></defs><defs><linearGradient id="grad2_2" x1="0%" y1="0%" x2="56.3%" y2="100%"><stop offset="14.444444444444446%" stop-color="#758ba2" stop-opacity="1"></stop><stop offset="85.55555555555554%" stop-color="#465365" stop-opacity="1"></stop></linearGradient></defs><defs><linearGradient id="grad2_3" x1="0%" y1="0%" x2="56.3%" y2="100%"><stop offset="14.444444444444446%" stop-color="#1a212e" stop-opacity="1"></stop><stop offset="85.55555555555554%" stop-color="#465365" stop-opacity="1"></stop></linearGradient></defs><g transform="translate(960, 0)"><path d="M0 486C-40.8 450.3 -81.6 414.7 -131.6 405.2C-181.7 395.6 -241.1 412.2 -285.7 393.2C-330.3 374.2 -360.1 319.6 -368.9 268C-377.7 216.5 -365.4 168.1 -381.4 123.9C-397.4 79.8 -441.7 39.9 -486 0L0 0Z" fill="#2f3949"></path><path d="M0 364.5C-30.6 337.8 -61.2 311 -98.7 303.9C-136.3 296.7 -180.8 309.1 -214.2 294.9C-247.7 280.6 -270.1 239.7 -276.7 201C-283.3 162.4 -274 126.1 -286 92.9C-298 59.8 -331.3 29.9 -364.5 0L0 0Z" fill="#5d6e83"></path><path d="M0 243C-20.4 225.2 -40.8 207.3 -65.8 202.6C-90.9 197.8 -120.5 206.1 -142.8 196.6C-165.1 187.1 -180.1 159.8 -184.5 134C-188.8 108.3 -182.7 84 -190.7 62C-198.7 39.9 -220.8 19.9 -243 0L0 0Z" fill="#8ea9c1"></path><path d="M0 121.5C-10.2 112.6 -20.4 103.7 -32.9 101.3C-45.4 98.9 -60.3 103 -71.4 98.3C-82.6 93.5 -90 79.9 -92.2 67C-94.4 54.1 -91.3 42 -95.3 31C-99.3 19.9 -110.4 10 -121.5 0L0 0Z" fill="#a7c8e2"></path></g><g transform="translate(0, 540)"><path d="M0 -486C54.6 -487.1 109.2 -488.3 150.2 -462.2C191.1 -436.2 218.5 -382.9 250.4 -344.6C282.3 -306.4 318.9 -283.1 344.6 -250.4C370.4 -217.7 385.3 -175.6 407.1 -132.3C428.8 -89 457.4 -44.5 486 0L0 0Z" fill="#2f3949"></path><path d="M0 -364.5C41 -365.4 81.9 -366.2 112.6 -346.7C143.4 -327.1 163.8 -287.2 187.8 -258.5C211.8 -229.8 239.2 -212.3 258.5 -187.8C277.8 -163.3 289 -131.7 305.3 -99.2C321.6 -66.7 343.1 -33.4 364.5 0L0 0Z" fill="#5d6e83"></path><path d="M0 -243C27.3 -243.6 54.6 -244.1 75.1 -231.1C95.6 -218.1 109.2 -191.5 125.2 -172.3C141.2 -153.2 159.5 -141.6 172.3 -125.2C185.2 -108.8 192.6 -87.8 203.5 -66.1C214.4 -44.5 228.7 -22.2 243 0L0 0Z" fill="#8ea9c1"></path><path d="M0 -121.5C13.7 -121.8 27.3 -122.1 37.5 -115.6C47.8 -109 54.6 -95.7 62.6 -86.2C70.6 -76.6 79.7 -70.8 86.2 -62.6C92.6 -54.4 96.3 -43.9 101.8 -33.1C107.2 -22.2 114.4 -11.1 121.5 0L0 0Z" fill="#a7c8e2"></path></g></svg>